<svg width="280" height="144" viewBox="0 0 280 144" fill="none" xmlns="http://www.w3.org/2000/svg">
<path d="M2.7883 92.3439C0.929429 87.3169 0 82.1002 0 76.7034C0 70.1874 0.929431 64.231 2.97819 58.6444C19.3582 14.1514 78.0126 0 149.309 0C220.606 0 265.669 19.738 277.212 51.009C279.071 56.036 280 61.2528 280 66.6495C280 73.1655 279.071 79.1219 277.022 84.7085C260.642 129.202 201.987 143.353 130.691 143.353C59.3939 143.353 14.3313 123.615 2.7883 92.3439ZM94.5726 83.969C98.3003 94.0229 114.121 102.398 136.277 102.398C160.662 102.398 179.471 95.1322 185.238 79.6816C187.096 75.0244 187.286 72.2361 187.286 69.0681C187.286 66.2797 187.286 63.8512 185.427 59.3839C181.7 49.33 165.879 40.9551 143.723 40.9551C119.338 40.9551 100.529 48.2207 94.7625 63.6713C92.9036 68.3285 92.7137 71.1168 92.7137 74.2849C92.7137 77.0732 92.7137 79.5017 94.5726 83.969Z" fill="black"/>
</svg>
