<svg id="Layer_1" data-name="Layer 1" xmlns="http://www.w3.org/2000/svg" viewBox="0 0 240 240"><defs><style>.cls-1{fill:#2d374b;}.cls-2{fill:#28a0f0;}.cls-3{fill:#fff;}.cls-4{fill:#96bedc;}</style></defs><g id="SYMBOL_VER_1-1" data-name="SYMBOL VER 1-1"><g id="Symbol_-_Original" data-name="Symbol - Original"><path class="cls-1" d="M142.37,111.91,157.06,87l39.6,61.68,0,11.83L196.55,79a6.14,6.14,0,0,0-2.84-4.89l-71.29-41a6.31,6.31,0,0,0-5.45,0l-.64.37-.24.16L46.88,73.8l-.27.12a6.32,6.32,0,0,0-1,.6,6.1,6.1,0,0,0-2.46,3.89,4.43,4.43,0,0,0-.09.72l.11,66.37L80,88.34c4.65-7.58,14.76-10,24.16-9.89l11,.29L50.26,182.9l7.65,4.41L123.64,78.84l29.06-.1L87.14,189.94l27.32,15.72,3.26,1.87a6.29,6.29,0,0,0,4.4.09l72.3-41.9-13.82,8Zm5.6,80.73-27.59-43.31,16.85-28.59,36.24,57.13Z"/><polygon class="cls-2" points="120.38 149.33 147.97 192.64 173.46 177.87 137.22 120.75 120.38 149.33"/><path class="cls-2" d="M196.68,160.49l0-11.83L157.06,87l-14.69,24.93,38.23,61.82,13.82-8a6.11,6.11,0,0,0,2.26-4.45Z"/><path class="cls-3" d="M30.74,171.66,50.26,182.9,115.21,78.74l-11-.29c-9.4-.14-19.51,2.31-24.16,9.89L43.15,145.5,30.74,164.57Z"/><polygon class="cls-3" points="152.7 78.74 123.64 78.84 57.91 187.31 80.89 200.54 87.14 189.94 152.7 78.74"/><path class="cls-4" d="M208.92,78.59a18.5,18.5,0,0,0-8.68-14.88L128,22.17a18.8,18.8,0,0,0-16.57,0c-.61.31-70.24,40.69-70.24,40.69a19.22,19.22,0,0,0-2.77,1.64,18.37,18.37,0,0,0-7.69,14v86l12.41-19.06L43,79.13a4.43,4.43,0,0,1,.09-.72,6.1,6.1,0,0,1,2.46-3.89c.33-.24,71.15-41.23,71.38-41.35a6.31,6.31,0,0,1,5.45,0l71.29,41A6.16,6.16,0,0,1,196.55,79v82.22a6,6,0,0,1-2.13,4.46l-13.83,8-7.13,4.14L148,192.64l-25.85,15a6.29,6.29,0,0,1-4.4-.09L87.14,189.94l-6.25,10.6,27.48,15.82,2.39,1.35c1,.58,1.73,1,2,1.08a17.8,17.8,0,0,0,7.29,1.5,18.36,18.36,0,0,0,6.73-1.26l75.09-43.48a18.37,18.37,0,0,0,7.07-13.83Z"/></g></g></svg>