<svg id="Layer_1" data-name="Layer 1" xmlns="http://www.w3.org/2000/svg" viewBox="0 0 240 240"><defs><style>.cls-1{fill:#efb90b;}</style></defs><polygon class="cls-1" points="65.66 120.11 43.69 142.09 21.52 120.11 43.69 97.94 65.66 120.11"/><polygon class="cls-1" points="119.36 66.41 157.19 104.25 179.37 82.08 119.36 22.27 59.35 82.28 81.53 104.44 119.36 66.41"/><polygon class="cls-1" points="195.03 97.94 173.06 120.11 195.23 142.28 217.39 120.11 195.03 97.94"/><polygon class="cls-1" points="119.36 173.81 81.53 135.78 59.35 157.95 119.36 217.95 179.37 157.94 157.19 135.78 119.36 173.81"/><polygon class="cls-1" points="119.36 142.09 141.53 119.92 119.36 97.95 97.19 120.11 119.36 142.09 119.36 142.09"/></svg>