<svg id="Layer_1" data-name="Layer 1" xmlns="http://www.w3.org/2000/svg" viewBox="0 0 240 240"><defs><style>.cls-1{fill:#6f7390;}.cls-2{fill:#b7b9c8;}</style></defs><path class="cls-1" d="M120.21,21.19c-12.23,0-22.14,44.33-22.14,99s9.91,99,22.14,99,22.13-44.33,22.13-99S132.43,21.19,120.21,21.19Zm1.52,192.45c-1.39,1.86-2.79.46-2.79.46-5.63-6.52-8.44-18.64-8.44-18.64C100.65,163.78,103,95.75,103,95.75c4.63-54,13.05-66.77,15.91-69.6a1.75,1.75,0,0,1,2.24-.18c4.16,2.94,7.64,15.26,7.64,15.26,10.3,38.21,9.37,74.08,9.37,74.08.93,31.22-5.16,66.17-5.16,66.17C128.3,208,121.73,213.64,121.73,213.64Z"/><path class="cls-1" d="M206.09,70.93C200,60.33,156.63,73.79,109.17,101s-80.93,57.88-74.85,68.48,49.46-2.86,96.92-30.08,80.93-57.87,74.85-68.47ZM39.93,168c-2.33-.29-1.8-2.21-1.8-2.21,2.86-8.12,11.95-16.59,11.95-16.59,22.59-24.31,82.77-56.13,82.77-56.13,49.15-22.87,64.41-21.9,68.29-20.84a1.75,1.75,0,0,1,1.26,1.87c-.46,5.07-9.43,14.22-9.43,14.22-28,28-59.59,45-59.59,45-26.62,16.35-60,28.45-60,28.45C48.05,170.93,39.93,168,39.93,168Z"/><path class="cls-1" d="M205.88,169.83c6.13-10.58-27.26-41.38-74.55-68.79S40.66,60,34.54,70.58s27.25,41.38,74.57,68.8S199.75,180.43,205.88,169.83ZM38.6,74.67c-.91-2.15,1-2.67,1-2.67,8.46-1.6,20.35,2,20.35,2,32.35,7.37,90,43.5,90,43.5,44.42,31.08,51.23,44.77,52.25,48.66a1.76,1.76,0,0,1-1,2c-4.63,2.12-17-1-17-1-38.23-10.25-68.8-29-68.8-29C88,123.35,60.8,100.55,60.8,100.55,40.16,83.17,38.61,74.69,38.61,74.69Z"/><circle class="cls-2" cx="119.97" cy="119.97" r="11.65"/><ellipse class="cls-2" cx="167.73" cy="75.24" rx="6.76" ry="6.99"/><ellipse class="cls-2" cx="56.84" cy="99.01" rx="6.76" ry="6.99"/><ellipse class="cls-2" cx="106.23" cy="184.74" rx="6.76" ry="6.99"/></svg>