<svg id="Layer_1" data-name="Layer 1" xmlns="http://www.w3.org/2000/svg" viewBox="0 0 240 240"><defs><style>.cls-1{fill:#1a69ff;}</style></defs><path class="cls-1" d="M112.75,37.94a16.77,16.77,0,0,1,14.32,0l41.5,21.81a7,7,0,0,1,4,5.18h0V174.55c-.06,2.16-1.41,4.3-4.08,5.7l-41.5,21.81a16.77,16.77,0,0,1-14.32,0l-41.5-21.81a6.73,6.73,0,0,1-4-5.7c0-.21,0-.39,0-.54V64.93h0c.19-2,1.47-3.87,4-5.18Zm53.36,88.15-39,20.51a16.77,16.77,0,0,1-14.32,0L73.8,126.13v48.2l39,20.36c2.2,1.17,4.48,2.31,6.72,2.46h.44c2.33,0,4.59-1.16,6.88-2.28l39.32-20.72ZM60.52,172.17c0,4.19.49,7,1.46,8.9a11.41,11.41,0,0,0,4.23,4.34l.13.09c.48.32,1,.66,1.67,1.06l.77.47,2.35,1.42L67.75,194l-2.64-1.59-.44-.27c-.76-.47-1.39-.87-2-1.26-6.31-4.23-8.66-8.84-8.7-18.43v-.29Zm56.13-75.46a6,6,0,0,0-.85.35L74.3,118.87l-.12.07,0,0,.07,0,.09,0,41.5,21.81a6,6,0,0,0,.85.35Zm6.53,0v44.5a5.89,5.89,0,0,0,.84-.35l41.5-21.81.13-.07,0,0-.06,0-.1,0L124,97.06A5.89,5.89,0,0,0,123.18,96.71Zm42.93-24L128.89,92.27l37.22,19.56Zm-92.31,0v39l37.14-19.52ZM124,43.69a10.31,10.31,0,0,0-8.22,0L74.3,65.49l-.12.07,0,0,.07,0,.09,0,41.5,21.81a10.39,10.39,0,0,0,8.22,0l41.5-21.81.13-.07,0,0-.06,0-.1-.05Zm48.23,2.39,2.64,1.58.44.27c.76.47,1.39.87,2,1.27C183.62,53.43,186,58,186,67.63v.29h-6.54c0-4.2-.49-7-1.46-8.9a11.36,11.36,0,0,0-4.23-4.35l-.13-.08c-.48-.33-1-.67-1.67-1.07l-.77-.47-2.35-1.41Z"/></svg>