<svg id="Layer_1" data-name="Layer 1" xmlns="http://www.w3.org/2000/svg" xmlns:xlink="http://www.w3.org/1999/xlink" viewBox="0 0 240 240"><defs><style>.cls-1{fill:url(#linear-gradient);}</style><linearGradient id="linear-gradient" x1="-4708.39" y1="480.4" x2="-4707.65" y2="479.67" gradientTransform="translate(847565 -86051.52) scale(180 179.51)" gradientUnits="userSpaceOnUse"><stop offset="0" stop-color="#00aee9"/><stop offset="1" stop-color="#69fabd"/></linearGradient></defs><path id="Shape" class="cls-1" d="M163.42,43.84a32.93,32.93,0,0,0-33,32.85v36.42c-3.39.23-6.86.37-10.46.37s-7,.14-10.46.35V76.69a33,33,0,0,0-65.91,0v87a33,33,0,0,0,65.91,0V127.31c3.39-.23,6.86-.37,10.46-.37s7-.15,10.46-.35v37.14a33,33,0,0,0,65.91,0v-87A32.94,32.94,0,0,0,163.42,43.84ZM76.58,57.3A19.44,19.44,0,0,1,96,76.69v38.56a110.83,110.83,0,0,0-28,7.92,51.06,51.06,0,0,0-10.87,6.48v-53A19.44,19.44,0,0,1,76.58,57.3ZM96,163.73a19.45,19.45,0,0,1-38.9,0V155c0-7.71,6.11-15,16.35-19.57A95.82,95.82,0,0,1,96,128.84v34.89Zm67.39,19.39A19.44,19.44,0,0,1,144,163.73V125.16a110.4,110.4,0,0,0,28-7.91,50.69,50.69,0,0,0,10.87-6.49v53a19.44,19.44,0,0,1-19.42,19.39Zm3.1-78.18A96.3,96.3,0,0,1,144,111.53V76.69a19.45,19.45,0,1,1,38.9,0v8.75C182.87,93.1,176.76,100.4,166.52,104.94Z"/></svg>