<svg id="Layer_1" data-name="Layer 1" xmlns="http://www.w3.org/2000/svg" viewBox="0 0 240 240"><defs><style>.cls-1{fill:#ffd83d;}.cls-2{fill:#ff6f03;}</style></defs><path class="cls-1" d="M86.44,25.75c20.12-7.53,42.78-7.55,63.29-1.36,26.69,8.28,49.23,28.43,61,53.71,3.25,7.21,6.36,14.72,6.67,22.73-15-8.7-31.45-14.34-47.94-19.48-26.37-9.5-54-16.1-78.93-29.17-5.81-3.47-13.22-7-14.8-14.26-.64-6.26,6-9.75,10.71-12.17"/><path class="cls-1" d="M25.67,86.6C31.5,70.78,41.06,56.1,54,45.22,57.33,72.36,68.89,98.59,88,118.33c22.88,23.77,55.47,38.36,88.62,37.81,13.17.42,26-2.63,38.89-5.08-12.64,45.65-62.68,76-109,68.67-28-3.58-53.82-20.15-69.41-43.54C19.45,150.33,15,116,25.67,86.6Z"/><path class="cls-2" d="M169.46,81.35C186,86.49,202.4,92.13,217.4,100.83l1,.53c1.39,10.47,2.4,21.15.55,31.63-7.55-3.2-13.67-8.82-20.06-13.79C186.6,109,174,97.24,169.46,81.35"/></svg>