<svg id="Layer_1" data-name="Layer 1" xmlns="http://www.w3.org/2000/svg" viewBox="0 0 240 240"><defs><style>.cls-1{fill:#54cbc8;}.cls-2{fill:#f2b707;}</style></defs><path class="cls-1" d="M161.12,139.27c-15,0-27.66-7.42-39.35-14.3-21.07-12.4-41-24.1-74.3,2.22a4.23,4.23,0,1,1-5.24-6.63c37.87-29.92,62.29-15.56,83.83-2.89,20.1,11.83,37.46,22,65.41,1.38a4.23,4.23,0,0,1,5,6.81C183.2,135.69,171.57,139.27,161.12,139.27Z"/><path class="cls-2" d="M190.66,110.71a74.29,74.29,0,1,0-145.27-1.35C112.6,56.88,131,150.92,190.66,110.71Z"/><path class="cls-1" d="M53.86,172.08a4.23,4.23,0,0,1-4.23-4.23V136a4.23,4.23,0,0,1,8.46,0v31.89A4.23,4.23,0,0,1,53.86,172.08Z"/><path class="cls-1" d="M72.4,175.47a4.23,4.23,0,0,1-4.23-4.23V126.65a4.23,4.23,0,1,1,8.46,0v44.59A4.24,4.24,0,0,1,72.4,175.47Z"/><path class="cls-1" d="M109,168.7a4.23,4.23,0,0,1-4.23-4.23V134.26a4.23,4.23,0,0,1,8.46,0v30.21A4.23,4.23,0,0,1,109,168.7Z"/><path class="cls-1" d="M145.68,199.16a4.23,4.23,0,0,1-4.23-4.23V151.18a4.23,4.23,0,1,1,8.46,0v43.75A4.24,4.24,0,0,1,145.68,199.16Z"/><path class="cls-1" d="M163.35,194.08a4.23,4.23,0,0,1-4.23-4.23V153.72a4.23,4.23,0,0,1,8.46,0v36.13A4.23,4.23,0,0,1,163.35,194.08Z"/><path class="cls-1" d="M182.32,168.7a4.23,4.23,0,0,1-4.24-4.23V148.65a4.24,4.24,0,0,1,8.47,0v15.82A4.23,4.23,0,0,1,182.32,168.7Z"/><path class="cls-1" d="M127.14,156.85a4.23,4.23,0,0,1-4.23-4.23v-8.2a4.23,4.23,0,0,1,8.46,0v8.2A4.23,4.23,0,0,1,127.14,156.85Z"/><path class="cls-1" d="M90.5,217.34a4.23,4.23,0,0,1-4.23-4.23V126.65a4.23,4.23,0,0,1,8.46,0v86.46A4.23,4.23,0,0,1,90.5,217.34Z"/></svg>