<svg id="Layer_1" data-name="Layer 1" xmlns="http://www.w3.org/2000/svg" viewBox="0 0 240 240"><defs><style>.cls-1{fill:#deddf6;}</style></defs><path class="cls-1" d="M161.71,57.94,132.83,100.8a3.07,3.07,0,0,0,4.61,4l28.41-24.73a1.12,1.12,0,0,1,1.85.92v77.27a1.15,1.15,0,0,1-2,.77L79.68,56.1a14.23,14.23,0,0,0-11.22-5.23H65.39A14.72,14.72,0,0,0,50.8,65.62V174.38a14.75,14.75,0,0,0,27.34,7.68L107,139.2a3.07,3.07,0,0,0-4.61-4L74,159.79a1.11,1.11,0,0,1-1.84-.93V81.75a1.15,1.15,0,0,1,2-.77l86,102.92a14.44,14.44,0,0,0,11.21,5.23h3.08a14.75,14.75,0,0,0,14.74-14.75V65.62a15,15,0,0,0-14.9-14.75A14.78,14.78,0,0,0,161.71,57.94Z"/></svg>