<svg id="Layer_1" data-name="Layer 1" xmlns="http://www.w3.org/2000/svg" viewBox="0 0 240 240"><defs><style>.cls-1{fill:#ff0420;}</style></defs><path class="cls-1" d="M62.26,171.11q-17.07,0-28-8t-10.75-23a50.44,50.44,0,0,1,.72-7.67q1.86-10.22,5.3-24.56,9.75-39,50.32-39a50.31,50.31,0,0,1,19.79,3.7,30,30,0,0,1,13.76,10.78,28.81,28.81,0,0,1,5,17,49.73,49.73,0,0,1-.72,7.52q-2.14,12.64-5.16,24.56-5,19.45-17.35,29.1T62.26,171.11Zm2-20.45A20.48,20.48,0,0,0,77.88,146q5.75-4.68,8.18-14.34,3.28-13.35,5-23.28a31.62,31.62,0,0,0,.58-6.1q0-12.93-13.62-12.92A21.11,21.11,0,0,0,64.26,94q-5.58,4.68-8,14.34t-5.16,23.28a29.46,29.46,0,0,0-.58,6Q50.5,150.67,64.26,150.66Z"/><path class="cls-1" d="M121.83,169.69a3.08,3.08,0,0,1-2.44-1,3.4,3.4,0,0,1-.43-2.55l19.79-92.28a4,4,0,0,1,1.57-2.55,4.43,4.43,0,0,1,2.73-1h38.13q15.91,0,25.52,6.53t9.75,18.88a34,34,0,0,1-.86,7.39q-3.59,16.32-14.48,24.13t-29.53,7.81H152.22l-6.59,31.09a4,4,0,0,1-1.58,2.55,4.42,4.42,0,0,1-2.72,1Zm50.75-54.23a17.19,17.19,0,0,0,10.47-3.27,15.35,15.35,0,0,0,6-9.37,25.33,25.33,0,0,0,.43-4.26,7.83,7.83,0,0,0-2.44-6.24c-1.62-1.52-4.4-2.27-8.31-2.27H161.54l-5.45,25.41Z"/></svg>