<?xml version="1.0" encoding="utf-8"?>
<!-- Generator: Adobe Illustrator 26.0.3, SVG Export Plug-In . SVG Version: 6.00 Build 0)  -->
<svg version="1.1" xmlns="http://www.w3.org/2000/svg" xmlns:xlink="http://www.w3.org/1999/xlink" x="0px" y="0px"
	 viewBox="0 0 240 240" style="enable-background:new 0 0 240 240;" xml:space="preserve">
<style type="text/css">
	.st0{fill:#FA0000;}
	.st1{fill:#FFFFFF;}
</style>
<g id="Layer_1">
	<rect x="67" y="23.6" class="st0" width="116" height="25"/>
	<g>
		<path class="st1" d="M181.6,110.3c0,9.7-2.2,18.1-6.3,25.1c-8.4,14.7-24.8,23.5-45.8,23.5h-25.9v54.4H68.5V62.1h61.1
			c21,0,37.4,8.6,45.8,23.3C179.5,92.5,181.6,100.8,181.6,110.3z M146,110.3c0-3.2-0.6-6.3-2.4-9.1c-2.8-5-8.9-8.2-17.3-8.2h-22.7
			v35h22.7c8.4,0,14.5-3.2,17.3-8.4C145.3,116.7,146,113.7,146,110.3z"/>
	</g>
</g>
<g id="Layer_2">
</g>
</svg>
