<svg id="Layer_1" data-name="Layer 1" xmlns="http://www.w3.org/2000/svg" xmlns:xlink="http://www.w3.org/1999/xlink" viewBox="0 0 240 240"><defs><style>.cls-1{fill-rule:evenodd;fill:url(#linear-gradient);}</style><linearGradient id="linear-gradient" x1="50.98" y1="837.06" x2="188.97" y2="975.04" gradientTransform="matrix(1, 0, 0, -1, 0, 1026)" gradientUnits="userSpaceOnUse"><stop offset="0" stop-color="#9945ff"/><stop offset="0.14" stop-color="#8a53f4"/><stop offset="0.42" stop-color="#6377d6"/><stop offset="0.79" stop-color="#24b0a7"/><stop offset="0.99" stop-color="#00d18c"/><stop offset="1" stop-color="#00d18c"/></linearGradient></defs><path class="cls-1" d="M71.78,154.63a5.08,5.08,0,0,1,1.67-1.2,5,5,0,0,1,2-.45H190.84a2.48,2.48,0,0,1,1.37.42,2.52,2.52,0,0,1,.92,1.1,2.6,2.6,0,0,1,.17,1.43,2.51,2.51,0,0,1-.62,1.29l-24.46,27.16a5.39,5.39,0,0,1-1.67,1.2,5.3,5.3,0,0,1-2,.45H49.09a2.55,2.55,0,0,1-1.37-.43,2.55,2.55,0,0,1-1.1-2.52,2.53,2.53,0,0,1,.63-1.29Zm121-22.51a2.51,2.51,0,0,1,.62,1.29,2.52,2.52,0,0,1-1.09,2.52,2.58,2.58,0,0,1-1.37.43l-115.42.09a5.16,5.16,0,0,1-2-.45,5.08,5.08,0,0,1-1.67-1.2L47.21,107.73a2.51,2.51,0,0,1-.62-1.29,2.56,2.56,0,0,1,.17-1.42,2.46,2.46,0,0,1,.92-1.1,2.58,2.58,0,0,1,1.37-.43l115.42-.09a5.16,5.16,0,0,1,2,.45,5.23,5.23,0,0,1,1.67,1.2Zm-121-76.65a5.39,5.39,0,0,1,1.67-1.2,5.3,5.3,0,0,1,2-.45l115.46.09a2.55,2.55,0,0,1,1.37.43,2.46,2.46,0,0,1,.92,1.1,2.5,2.5,0,0,1,.18,1.43,2.53,2.53,0,0,1-.63,1.29L168.22,85.22a5.08,5.08,0,0,1-1.67,1.2,5,5,0,0,1-2,.45H49.09a2.46,2.46,0,0,1-1.37-.42,2.53,2.53,0,0,1-.47-3.82Z"/></svg>