<svg id="Layer_1" data-name="Layer 1" xmlns="http://www.w3.org/2000/svg" xmlns:xlink="http://www.w3.org/1999/xlink" viewBox="0 0 240 240"><defs><style>.cls-1{fill:#fff;}.cls-1,.cls-2,.cls-3{fill-rule:evenodd;}.cls-2{fill:#0e3ca5;}.cls-3{fill:#5493f7;}.cls-4{mask:url(#mask);}</style><mask id="mask" x="25.8" y="87.57" width="58.88" height="117.81" maskUnits="userSpaceOnUse"><g id="b"><path id="a" class="cls-1" d="M25.8,87.64H84.68V205.38H25.8Z"/></g></mask></defs><path class="cls-2" d="M109,172.34c5,19.07,22.94,33.62,32,33,.31,0,34.37-6.57,53-38.67,14.5-25,9.56-49.1-10.17-49.63-7.09.53-84.37,18.94-74.84,55.28"/><path class="cls-2" d="M126.18,31.62A88.32,88.32,0,0,0,90.1,39.29a53.4,53.4,0,0,0-5.63,2.77c-1.25.67-2.5,1.33-3.71,2l.29.09a40.63,40.63,0,0,0-9.38,8.91c-25.52,33.78,60,58.34,105.73,58.43,21,15.13,26.95-42.62,6.4-58.66A88.19,88.19,0,0,0,126.18,31.62Z"/><path class="cls-3" d="M94,48.57c-11.56,17-50.09,29-56.42,27.09l0-.07.79-1.53A91.34,91.34,0,0,1,65.84,42.73Q69.39,40.18,73.2,38a27.76,27.76,0,0,1,12.73-3.31c17.15.32,8.19,13.78,8.1,13.92"/><g class="cls-4"><path class="cls-3" d="M84.33,175.8c.86,5.58,0,27.64-1.18,29.5-1,.06-3.08.19-9.09-3.15a95.74,95.74,0,0,1-29.81-26.26A94,94,0,0,1,30.67,150a93.57,93.57,0,0,1,1-62.44h0c6.9,9,14.87,17.22,21.64,26.36,6.46,8.69,15.34,22.86,17.14,25.89,11.22,18.8,13,30.4,13.86,36"/></g><path class="cls-3" d="M214.2,121.31a93.11,93.11,0,0,1-6.46,34.16c-10.91,11.78-84.55-17.21-85.28-17.53C112.39,133.52,81.74,120,79,98.88c-4-30.44,57.59-51.65,84.65-52.46,3.24,0,13.12.15,18.87,4.85a92.94,92.94,0,0,1,31.71,70m-64.39,75.3c4.4-15.58,42.9-31.56,51.4-32.42,1-.11,1.49.63,1,1.48a95.31,95.31,0,0,1-37.87,38C156.34,207.55,147.51,204.71,149.81,196.6Z"/></svg>