<svg id="Layer_1" data-name="Layer 1" xmlns="http://www.w3.org/2000/svg" viewBox="0 0 240 240"><defs><style>.cls-1{fill:#0f62ff;}</style></defs><path class="cls-1" d="M185.82,162.5c-.54-9.86-6.29-34.22-46.26-50.1l41.75-41.88V65.18a3,3,0,0,0-3-3H101.1V28.36L68.8,35.07v7.25h3.28c.55,0,5.48.28,5.48,5.48V62.17h-21a2.55,2.55,0,0,0-2.46,2.46V76.41H77.56v53.38c0,9.3,3,17,8.76,22.31s13.82,7.66,23.54,6.84a24.43,24.43,0,0,0,11.91-4.38,6.91,6.91,0,0,0,3-5.61v-8.49l-2.47,1.65a20,20,0,0,1-10.81,3.69,8.66,8.66,0,0,1-6.57-2.6c-4-4-3.83-11.36-3.83-11.5V76.41h51.19l-38.46,38.87V116c0,4.11-.14,7.67-.14,9v.68a1.93,1.93,0,0,0,1.64,1.92c35.18,6,46.13,28.47,46.13,36v.14c0,.14,1.64,14.65-6.84,24.91-4.93,5.89-12.32,9.17-21.77,9.86-5.61.27-20.39-.41-24.36-6.16a11.45,11.45,0,0,0,6.16-10.4c0-8.35-5.61-13.69-14.1-13.69-7.8,0-14.1,6.16-14.1,13.55a23.71,23.71,0,0,0,6.44,17.52c7.39,8.07,20.12,12.32,38.05,12.32H133c18.34-.28,32.17-5.61,41.47-15.74C186.92,181.66,185.82,163.46,185.82,162.5Z"/></svg>