<svg id="Layer_1" data-name="Layer 1" xmlns="http://www.w3.org/2000/svg" viewBox="0 0 240 240"><defs><style>.cls-1{fill:#ffdeae;}.cls-2{fill:#ffb800;}.cls-3{fill:#fff;}</style></defs><path class="cls-1" d="M196.75,160.45V95.23a20,20,0,0,0-10-17.35L130.24,45.27a20,20,0,0,0-20,0L53.73,77.88a20,20,0,0,0-10,17.35v65.22a20,20,0,0,0,10,17.36l56.48,32.6a20,20,0,0,0,20,0l56.49-32.6A20,20,0,0,0,196.75,160.45Z"/><path class="cls-2" d="M196.75,148.54V83.32a20,20,0,0,0-10-17.35L130.24,33.36a20,20,0,0,0-20,0L53.73,66a20,20,0,0,0-10,17.35v65.22a20,20,0,0,0,10,17.35l56.48,32.61a20,20,0,0,0,20,0l56.49-32.61A20,20,0,0,0,196.75,148.54Z"/><polygon class="cls-3" points="101.34 81.35 79.75 81.35 139.11 155.09 160.7 155.09 101.34 81.35"/><polygon class="cls-3" points="139.11 81.35 160.7 81.35 101.34 155.09 79.75 155.09 139.11 81.35"/></svg>